<svg width="29" height="29" viewBox="0 0 29 29" fill="none" xmlns="http://www.w3.org/2000/svg">
<rect width="28.9385" height="28.9385" rx="14.4692" fill="#D9D9D9"/>
<g clip-path="url(#clip0_430_21301)">
<path d="M5.0247 14.3136C5.02424 15.9713 5.46078 17.59 6.29086 19.0168L4.94531 23.8915L9.97296 22.5834C11.3635 23.3346 12.9216 23.7282 14.5049 23.7283H14.509C19.7358 23.7283 23.9904 19.5081 23.9927 14.321C23.9937 11.8075 23.0081 9.4439 21.2173 7.66568C19.4269 5.88762 17.0457 4.90789 14.5086 4.90674C9.2813 4.90674 5.02693 9.12668 5.02478 14.3136" fill="url(#paint0_linear_430_21301)"/>
<path d="M4.68794 14.3102C4.6874 16.0276 5.13959 17.7042 5.99926 19.182L4.60547 24.2315L9.81339 22.8765C11.2483 23.6528 12.864 24.0621 14.5079 24.0627H14.5122C19.9264 24.0627 24.3339 19.6908 24.3362 14.318C24.3372 11.7141 23.3161 9.26559 21.4614 7.42367C19.6065 5.58198 17.1401 4.56699 14.5122 4.56592C9.09699 4.56592 4.6901 8.93728 4.68794 14.3102ZM7.78944 18.9275L7.59499 18.6212C6.77755 17.3315 6.34609 15.8411 6.34671 14.3108C6.3484 9.84497 10.0112 6.21168 14.5152 6.21168C16.6964 6.2126 18.7463 7.05628 20.288 8.58702C21.8297 10.1179 22.6781 12.1529 22.6775 14.3174C22.6755 18.7832 19.0126 22.4169 14.5122 22.4169H14.5089C13.0435 22.4161 11.6063 22.0257 10.353 21.2877L10.0547 21.1122L6.96422 21.9162L7.78944 18.9275Z" fill="url(#paint1_linear_430_21301)"/>
<path d="M12.056 10.2351C11.8721 9.82956 11.6786 9.82137 11.5037 9.81426C11.3605 9.80814 11.1968 9.8086 11.0333 9.8086C10.8695 9.8086 10.6036 9.86971 10.3787 10.1133C10.1537 10.3571 9.51953 10.9463 9.51953 12.1446C9.51953 13.3429 10.3992 14.501 10.5218 14.6637C10.6446 14.826 12.2199 17.3638 14.715 18.3401C16.7885 19.1514 17.2105 18.9901 17.6606 18.9494C18.1107 18.9088 19.1129 18.3604 19.3174 17.7916C19.522 17.2229 19.522 16.7355 19.4607 16.6336C19.3993 16.5321 19.2356 16.4712 18.9901 16.3494C18.7447 16.2277 17.5378 15.6384 17.3128 15.5571C17.0877 15.4758 16.9241 15.4353 16.7604 15.6792C16.5967 15.9227 16.1266 16.4712 15.9834 16.6336C15.8402 16.7964 15.697 16.8167 15.4516 16.6949C15.2059 16.5727 14.4154 16.3158 13.4775 15.4861C12.7477 14.8405 12.2551 14.0432 12.1119 13.7993C11.9687 13.5558 12.0966 13.4238 12.2196 13.3025C12.3299 13.1933 12.4652 13.0181 12.5881 12.8759C12.7104 12.7337 12.7513 12.6322 12.8331 12.4697C12.9151 12.3071 12.8741 12.1649 12.8128 12.0431C12.7513 11.9212 12.2743 10.7167 12.056 10.2351Z" fill="white"/>
</g>
<defs>
<linearGradient id="paint0_linear_430_21301" x1="957.313" y1="1903.38" x2="957.313" y2="4.90674" gradientUnits="userSpaceOnUse">
<stop stop-color="#1FAF38"/>
<stop offset="1" stop-color="#60D669"/>
</linearGradient>
<linearGradient id="paint1_linear_430_21301" x1="991.144" y1="1971.12" x2="991.144" y2="4.56592" gradientUnits="userSpaceOnUse">
<stop stop-color="#F9F9F9"/>
<stop offset="1" stop-color="white"/>
</linearGradient>
<clipPath id="clip0_430_21301">
<rect width="19.6543" height="19.8078" fill="white" transform="translate(4.60547 4.56543)"/>
</clipPath>
</defs>
</svg>
